<svg xmlns="http://www.w3.org/2000/svg" xmlns:xlink="http://www.w3.org/1999/xlink" width="500" height="500" viewBox="0 0 500 500">
    <defs>
        <filter id="a" width="114.8%" height="114.8%" x="-7.4%" y="-7.4%" filterUnits="objectBoundingBox">
            <feOffset dx="4" dy="4" in="SourceAlpha" result="shadowOffsetOuter1"/>
            <feGaussianBlur in="shadowOffsetOuter1" result="shadowBlurOuter1" stdDeviation="6"/>
            <feColorMatrix in="shadowBlurOuter1" result="shadowMatrixOuter1" values="0 0 0 0 0 0 0 0 0 0 0 0 0 0 0 0 0 0 0.0160074301 0"/>
            <feMerge>
                <feMergeNode in="shadowMatrixOuter1"/>
                <feMergeNode in="SourceGraphic"/>
            </feMerge>
        </filter>
        <path id="b" d="M208.792.667C93.792.667.667 94 .667 209s93.125 208.333 208.125 208.333C324 417.333 417.333 324 417.333 209S324 .667 208.792.667zm144.375 125h-61.459c-6.666-26.042-16.25-51.042-28.75-74.167 38.334 13.125 70.209 39.792 90.209 74.167zM209 43.167c17.292 25 30.833 52.708 39.792 82.5h-79.584c8.959-29.792 22.5-57.5 39.792-82.5zm-161.25 207.5c-3.333-13.334-5.417-27.292-5.417-41.667s2.084-28.333 5.417-41.667h70.417c-1.667 13.75-2.917 27.5-2.917 41.667 0 14.167 1.25 27.917 2.917 41.667H47.75zm17.083 41.666h61.459c6.666 26.042 16.25 51.042 28.75 74.167a166.392 166.392 0 0 1-90.209-74.167zm61.459-166.666H64.833A166.392 166.392 0 0 1 155.042 51.5c-12.5 23.125-22.084 48.125-28.75 74.167zM209 374.833c-17.292-25-30.833-52.708-39.792-82.5h79.584c-8.959 29.792-22.5 57.5-39.792 82.5zm48.75-124.166h-97.5c-1.875-13.75-3.333-27.5-3.333-41.667 0-14.167 1.458-28.125 3.333-41.667h97.5c1.875 13.542 3.333 27.5 3.333 41.667 0 14.167-1.458 27.917-3.333 41.667zm5.208 115.833c12.5-23.125 22.084-48.125 28.75-74.167h61.459c-20 34.375-51.875 61.042-90.209 74.167zm36.875-115.833c1.667-13.75 2.917-27.5 2.917-41.667 0-14.167-1.25-27.917-2.917-41.667h70.417c3.333 13.334 5.417 27.292 5.417 41.667s-2.084 28.333-5.417 41.667h-70.417z"/>
        <path id="d" d="M0 0h1042v1042H0z"/>
    </defs>
    <g fill="none" fill-rule="evenodd" filter="url(#a)" transform="translate(41 41)">
        <mask id="c" fill="#fff">
            <use xlink:href="#b"/>
        </mask>
        <g mask="url(#c)">
            <use fill="#FFF" transform="translate(-312 -312)" xlink:href="#d"/>
        </g>
    </g>
</svg>
